<?xml version="1.0" encoding="UTF-8" standalone="no"?>
<!-- Created with Inkscape (http://www.inkscape.org/) -->

<svg
   width="512mm"
   height="512mm"
   viewBox="0 0 512 512"
   version="1.1"
   id="svg1"
   xml:space="preserve"
   inkscape:version="1.3.2 (091e20e, 2023-11-25, custom)"
   sodipodi:docname="logo.svg"
   xmlns:inkscape="http://www.inkscape.org/namespaces/inkscape"
   xmlns:sodipodi="http://sodipodi.sourceforge.net/DTD/sodipodi-0.dtd"
   xmlns="http://www.w3.org/2000/svg"
   xmlns:svg="http://www.w3.org/2000/svg"><sodipodi:namedview
     id="namedview1"
     pagecolor="#ffffff"
     bordercolor="#000000"
     borderopacity="0.25"
     inkscape:showpageshadow="2"
     inkscape:pageopacity="0.0"
     inkscape:pagecheckerboard="0"
     inkscape:deskcolor="#d1d1d1"
     inkscape:document-units="mm"
     showguides="true"
     inkscape:zoom="0.29665114"
     inkscape:cx="1184.8935"
     inkscape:cy="547.78148"
     inkscape:window-width="1920"
     inkscape:window-height="1009"
     inkscape:window-x="-8"
     inkscape:window-y="-8"
     inkscape:window-maximized="1"
     inkscape:current-layer="layer1"
     showgrid="false" /><defs
     id="defs1" /><g
     inkscape:label="Слой 1"
     inkscape:groupmode="layer"
     id="layer1"><path
       id="path1"
       style="color:#000000;fill:#005522;stroke-linecap:round;stroke-miterlimit:7;-inkscape-stroke:none"
       d="M 54.956829 -133.43932 L 4.9628796 -84.570498 L -64.755603 -89.720417 L -86.312632 -23.21712 L -150.4392 4.6230972 L -138.62095 73.527513 L -182.4647 127.98066 L -139.97866 183.50013 L -153.49441 252.08975 L -90.073992 281.506 L -70.166231 348.52155 L -0.33982161 345.09391 L 48.43174 395.18144 L 108.66805 359.69548 L 175.12915 381.38105 L 211.97485 321.9686 L 280.90051 310.28296 L 285.91394 240.55445 L 341.51581 198.17589 L 313.55056 134.10171 L 343.08783 70.738495 L 288.55102 27.001815 L 285.25786 -42.832056 L 216.64061 -56.213033 L 181.27313 -116.51736 L 114.29683 -96.478303 L 54.956829 -133.43932 z M 62.24038 -66.560438 L 106.58818 -38.939646 L 156.64459 -53.914032 L 183.07629 -8.8458332 L 234.35534 1.1545401 L 236.1414 39.032991 C 240.93602 38.757931 245.93764 38.924139 251.16215 39.614142 L 251.16207 39.614747 C 264.53652 41.381114 275.10911 45.582174 282.05866 53.153897 C 289.00819 60.725618 291.46572 71.291675 289.9199 82.996189 C 289.31663 87.563995 288.13605 92.347499 286.42044 97.377444 L 286.43522 97.340024 L 275.20874 130.91854 L 257.72653 128.60966 L 255.49982 133.38663 L 276.40049 181.27156 L 252.12439 199.77257 L 245.84517 218.56739 C 242.62258 228.1974 238.24538 236.4093 232.68574 242.98813 L 231.09958 265.05487 L 179.58765 273.78719 L 152.05068 318.18974 L 102.38069 301.98231 L 57.365436 328.50221 L 20.916315 291.0701 L -31.269328 293.63101 L -46.146537 243.54683 L -93.544745 221.56439 L -93.464443 221.15666 L -128.69127 216.50424 L -104.15011 143.24341 L -115.19508 128.81085 L -88.001804 95.036547 L -83.531159 81.690969 L -91.261971 36.621365 L -64.549152 25.024147 L -56.902566 2.1970656 L -39.660407 4.4742441 L -27.226853 -33.888567 L 24.878724 -30.039261 L 62.24038 -66.560438 z M 249.52694 51.995531 C 244.91113 51.385919 240.67598 51.243091 236.72773 51.4697 L 236.81615 53.343572 L 276.80812 85.414619 C 277.10787 84.016243 277.36556 82.651882 277.53617 81.36005 C 278.75634 72.121262 277.03473 66.151206 272.85657 61.598984 C 268.67841 57.046752 261.1739 53.533749 249.52694 51.995531 z M -48.329818 15.929085 L -49.135037 18.332121 L -44.702531 16.408142 L -48.329818 15.929085 z M 275.52899 90.423166 L 263.25947 116.74182 L 266.62858 117.18678 L 274.59272 93.361955 L 274.59995 93.344454 C 274.9396 92.348667 275.2437 91.378859 275.52899 90.423166 z M -94.988292 155.21687 L -112.03445 206.1043 L -91.057981 208.87467 L -91.024453 208.77451 L -83.443349 170.30298 L -94.988292 155.21687 z "
       transform="matrix(0.84000055,-0.11093919,0.11093919,0.84000055,173.25375,153.80653)" /><g
       id="text1"
       style="font-size:181.474px;font-family:'Gobold Italic';-inkscape-font-specification:'Gobold Italic, ';text-align:center;text-anchor:middle;fill:#37c871;stroke:#ffffff;stroke-width:3.96875;stroke-linecap:round;stroke-miterlimit:7"
       aria-label="MTS"><path
         style="font-family:'Gobold Bold';-inkscape-font-specification:'Gobold Bold, '"
         d="m 165.06186,284.84267 52.2801,-117.58594 h 29.15281 l -37.6594,177.39792 h -28.44392 l 17.36763,-81.61013 -34.73526,81.61013 H 142.289 l -0.53167,-82.14179 -17.45623,82.14179 H 95.591342 L 133.25074,167.25673 h 29.15281 z m 173.8535,-117.58594 -6.0255,28.2667 h -23.48175 l -31.63389,149.13122 h -29.50725 l 31.6339,-149.13122 h -23.48175 l 6.02551,-28.2667 z"
         id="path6" /><path
         style="font-family:'Gobold Bold';-inkscape-font-specification:'Gobold Bold, ';fill:#00ff66"
         d="m 345.56114,202.78948 q 8.15215,-38.27967 46.34321,-38.27967 31.54529,0 31.54529,26.05144 0,5.49384 -1.41777,12.22823 l -5.31662,25.16534 h -29.50724 l 5.31662,-25.16534 q 0.44305,-1.94943 0.44305,-3.54441 0,-6.37995 -7.00022,-6.46856 h -0.17722 q -8.5952,0 -10.72185,10.01297 l -3.3672,15.77264 q -0.26583,1.15194 -0.26583,2.39248 0,10.19019 17.19041,24.72229 16.57014,13.82322 16.57014,32.07695 0,4.60774 -1.06333,9.3927 l -4.69635,21.97536 q -8.15215,38.36828 -46.34321,38.36828 -31.54528,-0.0886 -31.54528,-26.14005 0,-5.49384 1.41776,-12.22823 l 5.31662,-25.16534 h 29.50725 l -5.31662,25.16534 q -0.44305,1.94943 -0.44305,3.54442 0,6.46855 7.08882,6.46855 8.68382,0 10.81047,-10.01297 l 4.25329,-19.84872 q 0.26584,-1.32915 0.26584,-2.74692 0,-10.89907 -17.01319,-25.34256 -16.39292,-13.7346 -16.39292,-32.25417 0,-4.78495 1.06333,-9.83574 z"
         id="path7" /></g><g
       id="text8"
       style="font-size:181.474px;font-family:'Gobold Italic';-inkscape-font-specification:'Gobold Italic, ';text-align:center;text-anchor:middle;fill:#000000;stroke:#000000;stroke-width:10.5833;stroke-linecap:round;stroke-miterlimit:7"
       aria-label="MTS" /></g></svg>
