<?xml version="1.0" encoding="UTF-8" standalone="no"?>
<svg
   width="113.67mm"
   height="56.38mm"
   version="1.1"
   viewBox="0 0 113.67 56.38"
   id="svg19"
   sodipodi:docname="logo_text.svg"
   xml:space="preserve"
   inkscape:version="1.3.2 (091e20e, 2023-11-25, custom)"
   xmlns:inkscape="http://www.inkscape.org/namespaces/inkscape"
   xmlns:sodipodi="http://sodipodi.sourceforge.net/DTD/sodipodi-0.dtd"
   xmlns="http://www.w3.org/2000/svg"
   xmlns:svg="http://www.w3.org/2000/svg"><defs
     id="defs19" /><sodipodi:namedview
     id="namedview19"
     pagecolor="#ffffff"
     bordercolor="#000000"
     borderopacity="0.25"
     inkscape:showpageshadow="2"
     inkscape:pageopacity="0.0"
     inkscape:pagecheckerboard="0"
     inkscape:deskcolor="#d1d1d1"
     inkscape:document-units="mm"
     showguides="true"
     inkscape:zoom="1.2860788"
     inkscape:cx="188.94644"
     inkscape:cy="13.607254"
     inkscape:window-width="1920"
     inkscape:window-height="1009"
     inkscape:window-x="-8"
     inkscape:window-y="-8"
     inkscape:window-maximized="1"
     inkscape:current-layer="svg19" /><path
     style="fill:#000000;stroke-width:1.2161;fill-opacity:1"
     d="m 0.83815696,52.507133 c -0.004526,-0.30842 0.84960284,-4.142799 0.94531494,-4.241864 0.060476,-0.0625 0.61207,-0.143565 1.2259688,-0.180153 L 4.1256379,48.018589 3.920199,48.97575 c -0.1129768,0.52644 -0.1806869,0.981917 -0.1504305,1.012175 0.030238,0.03026 0.4519889,0.01914 0.9371762,-0.02469 l 0.8821406,-0.0797 0.3401707,-1.590226 c 0.1870785,-0.874624 0.3260113,-1.601969 0.3087103,-1.616321 -0.017291,-0.01435 -0.9478318,0.04063 -2.0678945,0.122175 -1.1200631,0.08155 -2.0634134,0.121331 -2.0963494,0.08838 -0.053867,-0.05389 1.3531775,-7.078271 1.4374461,-7.17601 0.042098,-0.04885 6.5808925,-0.520738 6.6236235,-0.478006 0.0163,0.01635 -0.1613844,0.929681 -0.3949342,2.029653 l -0.4246566,1.999947 -1.1398173,0.08014 c -0.6269085,0.04408 -1.1578877,0.06209 -1.1799417,0.04003 -0.022,-0.02206 0.029152,-0.369547 0.1138278,-0.772184 0.084649,-0.402637 0.1331568,-0.752903 0.107744,-0.778365 -0.02544,-0.02547 -0.4492274,-0.01441 -0.9417116,0.02458 l -0.8954219,0.07088 -0.2536207,1.169009 c -0.1394941,0.642956 -0.2357222,1.187707 -0.2138492,1.21056 0.02191,0.02285 0.9663729,-0.01739 2.098875,-0.08942 1.1325111,-0.07204 2.0738789,-0.113303 2.0919313,-0.0917 0.041374,0.04941 -1.6134344,7.917589 -1.6788811,7.983037 -0.026527,0.02646 -1.2592219,0.131872 -2.7394451,0.234242 -1.4802325,0.10237 -2.9508773,0.207041 -3.2681159,0.232602 -0.3955319,0.03188 -0.57735038,0.01009 -0.57861784,-0.06939 z M 12.576156,51.704992 c 0,-0.04914 0.473961,-2.346475 1.053248,-5.105194 0.579289,-2.758719 1.05325,-5.083948 1.05325,-5.167177 0,-0.130134 -0.155854,-0.141222 -1.113047,-0.07918 -1.052307,0.0682 -1.109896,0.06207 -1.055313,-0.112477 0.03178,-0.101543 0.149607,-0.632911 0.261887,-1.180822 0.112243,-0.547911 0.217216,-1.009266 0.233187,-1.025233 0.03296,-0.03301 6.826961,-0.520643 6.861943,-0.492523 0.06862,0.05515 -0.477474,2.303565 -0.573973,2.363205 -0.06338,0.03915 -0.569312,0.09883 -1.12439,0.132654 -0.555089,0.03383 -1.021091,0.07429 -1.035577,0.08994 -0.01449,0.01565 -0.510084,2.353123 -1.101331,5.194376 -0.591248,2.841254 -1.103786,5.197498 -1.138967,5.236098 -0.09911,0.108792 -2.320917,0.24888 -2.320917,0.146335 z m 7.459601,-0.628498 c 0.04608,-0.147451 2.035582,-9.55569 2.59087,-12.252036 0.07687,-0.373524 0.155456,-0.526311 0.270143,-0.525553 0.08891,5.87e-4 1.551057,-0.09587 3.249194,-0.214341 1.698119,-0.118472 3.113213,-0.189685 3.144655,-0.158246 0.03142,0.03144 -0.545981,2.9378 -1.283168,6.458578 l -1.340322,6.401416 -1.130139,0.08905 c -0.621576,0.04899 -1.152111,0.06709 -1.178964,0.04025 -0.02689,-0.02685 0.21586,-1.302252 0.539345,-2.834227 l 0.58816,-2.785409 -0.912605,0.071 c -0.501946,0.03906 -0.932007,0.09006 -0.95569,0.11334 -0.02372,0.02328 -0.306882,1.291667 -0.629316,2.818644 -0.322427,1.526977 -0.596454,2.786403 -0.60893,2.798727 -0.01249,0.01232 -0.558175,0.05531 -1.212642,0.09553 -1.138667,0.06998 -1.187374,0.06495 -1.130591,-0.116746 z m 5.897706,-8.251805 c 0.07578,-0.07198 0.485352,-1.923366 0.485352,-2.193473 0,-0.160764 -0.08193,-0.172404 -0.853588,-0.121172 -0.469461,0.03117 -0.891972,0.09914 -0.938914,0.15102 -0.04698,0.05189 -0.162625,0.500593 -0.257097,0.997121 -0.09449,0.496531 -0.194756,0.999581 -0.222857,1.11789 -0.04997,0.210401 -0.03178,0.213976 0.834837,0.16341 0.487252,-0.02842 0.915765,-0.0801 0.952267,-0.114799 z m 6.139098,7.44408 c 0.0307,-0.101544 0.39392,-1.809627 0.807278,-3.795746 0.413367,-1.986118 0.890207,-4.260835 1.05965,-5.054924 0.169433,-0.794092 0.295736,-1.455249 0.280672,-1.469242 -0.01512,-0.01399 -0.501357,0.009 -1.080644,0.05112 -0.579288,0.04211 -1.070921,0.06118 -1.092505,0.04237 -0.02164,-0.01881 0.06736,-0.554272 0.197761,-1.189912 0.234854,-1.145075 0.239833,-1.15613 0.540812,-1.20166 0.553078,-0.08367 6.499166,-0.463393 6.544614,-0.417952 0.05939,0.05934 -0.371304,2.197551 -0.461911,2.293505 -0.03893,0.04121 -0.554754,0.104547 -1.1463,0.140748 -0.981364,0.06004 -1.080019,0.08422 -1.126572,0.27614 -0.02807,0.115687 -0.522785,2.464102 -1.099384,5.218709 -0.576617,2.754608 -1.083153,5.040308 -1.125667,5.079334 -0.04255,0.03903 -0.589446,0.102723 -1.215422,0.141541 -1.075837,0.06672 -1.135064,0.06048 -1.082382,-0.114032 z m 7.486725,-0.459966 c -1e-5,-0.106908 2.621361,-12.723773 2.656725,-12.787009 0.02031,-0.03634 2.30567,-0.206984 2.341862,-0.174863 0.01836,0.01625 -0.568513,2.904074 -1.304022,6.417395 -0.954514,4.559398 -1.380367,6.409858 -1.487759,6.464724 -0.08269,0.04229 -0.613133,0.10585 -1.178629,0.141257 -0.792057,0.0496 -1.028177,0.03547 -1.028177,-0.0615 z m 5.517009,-0.413594 c 0,-0.251754 2.624252,-12.651105 2.691902,-12.718978 0.09218,-0.09243 6.427486,-0.527057 6.508077,-0.446466 0.07308,0.07308 -2.551067,12.71457 -2.66026,12.815472 -0.06068,0.05612 -5.70842,0.493419 -6.314024,0.488898 -0.124139,-9.06e-4 -0.225695,-0.06345 -0.225695,-0.138926 z m 4.387714,-2.529198 c 0.228687,-0.03565 0.341431,-0.116367 0.379932,-0.271995 0.118692,-0.480066 1.638763,-7.840836 1.62096,-7.849587 -0.07102,-0.0349 -1.780791,0.128219 -1.826845,0.174282 -0.03174,0.03174 -0.41571,1.767019 -0.853237,3.856169 -0.437539,2.089148 -0.81774,3.891518 -0.844872,4.005267 -0.04646,0.194682 -0.01277,0.204754 0.574752,0.171686 0.343267,-0.01932 0.770446,-0.05793 0.94931,-0.08582 z m 5.34449,1.982105 c 0.0073,-0.240252 2.679681,-12.76408 2.734844,-12.819245 0.09656,-0.09658 1.91343,-0.239308 1.991686,-0.156462 0.03539,0.03749 0.27541,1.219212 0.53332,2.626045 0.257921,1.406834 0.495559,2.64816 0.528101,2.758499 0.03344,0.113499 0.317912,-1.040925 0.654978,-2.658189 0.327713,-1.572345 0.639862,-2.886044 0.693674,-2.919334 0.09911,-0.06132 2.208821,-0.204765 2.259921,-0.153666 0.0152,0.01525 -0.491948,2.507194 -1.127127,5.537649 -1.492613,7.121419 -1.525326,7.273167 -1.579065,7.326906 -0.101058,0.101045 -2.078346,0.166678 -2.078346,0.06898 0,-0.144023 -0.993564,-5.370534 -1.027359,-5.404339 -0.01557,-0.0155 -0.294526,1.252223 -0.620039,2.817168 l -0.59185,2.845355 -0.610699,0.05258 c -1.522968,0.131136 -1.764131,0.141818 -1.762039,0.07805 z"
     id="path19"
     sodipodi:nodetypes="scscsssccsssscscsccsscscsccsssssssssccssssscssscsssscscscscsssssssscssssssssccccscsssscssssscscsssscsccsscssssssssscscssccsscscsss" /><path
     d="m 4.4092523,35.410658 c 0,0.383927 3.3534797,-16.033523 4.3587188,-20.646156 0.1439121,-0.66037 -3.3738136,-2.606811 -2.828349,-2.619427 0.2492931,-0.0057 7.6847389,-0.703161 7.7164989,-0.497505 l 2.92637,23.007755 -3.217462,0.142523 c 0.01847,-0.0012 -2.348603,-9.903646 -2.41032,-9.965376 C 10.926199,24.804162 8.741825,35.17212 8.741825,35.17212 L 7.6267054,35.26813 C 4.845796,35.50757 4.4092523,35.29415 4.4092523,35.410644 Z m 8.9557767,-0.61281 c 0,0.438893 13.21537,-23.834382 13.316097,-23.935111 0.176296,-0.176357 4.21583,-0.708862 4.247588,-0.503206 l -4.982657,23.577434 -4.160849,0.362358 c 0.01847,-0.0012 2.084661,-9.97916 2.084661,-9.97916 L 16.582491,34.65533 v 0 c 0,0 -3.217462,0.02602 -3.217462,0.142515 z m 17.169448,-1.415619 c 0,-0.195212 4.786554,-23.233343 4.851131,-23.348811 0.03694,-0.066356 4.210099,-0.3779493 4.276189,-0.319297 0.03359,0.029675 -1.038094,5.30278 -2.381114,11.71803 -1.742915,8.325365 -2.520525,11.704264 -2.716621,11.804451 -0.15092,0.0772 -1.119565,0.193277 -2.152145,0.25793 -1.446283,0.09057 -1.87744,0.06477 -1.87744,-0.112291 z m 9.146195,-0.80986 c 0,0.438894 4.893033,-23.3069401 4.99376,-23.4076696 0.176313,-0.176357 3.4939,-0.436972 3.636798,-0.285698 0.0646,0.068452 0.502877,2.2262546 0.973817,4.7951046 0.470966,2.56885 0.904889,4.835484 0.964302,5.036962 0.06099,0.207246 0.580512,-1.900707 1.19599,-4.8538 0.598399,-2.871067 1.168377,-5.2698562 1.266619,-5.3306413 0.180978,-0.1119659 4.033257,-0.3738969 4.126559,-0.2805913 0.02777,0.02784 -0.898291,4.5780836 -2.058099,10.1116326 -2.725477,13.003561 -2.785212,13.280649 -2.88333,13.378775 -0.184523,0.184506 -3.795012,0.304352 -3.795012,0.125951 0,-0.262981 -1.814239,-9.806481 -1.875949,-9.868209 -0.02844,-0.02832 -0.537807,2.286531 -1.132192,5.144091 l -1.080694,5.195558 -1.115124,0.09601 c -2.780902,0.239422 -3.217445,0.02599 -3.217445,0.142516 z M 59.18868,31.318851 c 0,0.193702 0.719291,-3.304341 1.474075,-6.930952 0.754799,-3.626612 1.625499,-7.780197 1.934898,-9.230188 0.309382,-1.449993 0.540008,-2.657252 0.512501,-2.682803 -0.02761,-0.02555 -0.915467,0.01638 -1.973234,0.09335 -1.057768,0.0769 -1.955479,0.11172 -1.99489,0.07736 -0.0395,-0.03435 0.122986,-1.012089 0.361109,-2.172754 0.428837,-2.0908845 0.437928,-2.1110691 0.987508,-2.1942062 1.00991,-0.1527818 11.867343,-0.8461458 11.95033,-0.7631708 0.10844,0.1083463 -0.677996,4.012683 -0.843439,4.187891 -0.07109,0.07525 -1.012969,0.190901 -2.093119,0.257004 -1.791952,0.109633 -1.972095,0.15379 -2.057098,0.504226 -0.05124,0.211243 -0.954595,4.499398 -2.007454,9.529253 -1.052891,5.029856 -1.977812,9.203497 -2.055442,9.274757 -0.0777,0.07128 -1.076318,0.187571 -2.219335,0.258451 -1.964457,0.121832 -1.97641,-0.541089 -1.97641,-0.20822 z"
     style="fill:#000000;stroke-width:2.22057;fill-opacity:1"
     id="path1-7"
     sodipodi:nodetypes="ssscccccssssccccccssssccscssssccscsscssscscssssssccccscccsccsss" /><path
     d="m 73.02623,45.02379 c 0.316265,-1.525777 1.894566,-9.100454 3.507348,-16.832614 1.612764,-7.73216 2.916567,-14.076772 2.897319,-14.099135 -0.01923,-0.02236 -1.158133,0.04264 -2.530878,0.144418 -1.372728,0.101799 -2.518667,0.165027 -2.546498,0.14051 -0.05223,-0.04601 1.369162,-6.8938719 1.447173,-6.9718747 0.09366,-0.093647 11.826955,-0.8571524 11.909151,-0.7749466 0.09273,0.09271 -0.966971,5.2760983 -5.436231,26.5911133 -0.252858,1.205933 -1.016248,4.862425 -1.696405,8.12554 -0.680172,3.263113 -1.244603,5.941132 -1.254313,5.951153 -0.0095,0.01002 -1.559805,0.126608 -3.444675,0.259093 l -3.427023,0.240873 z m 3.954756,-0.807244 c 0.03675,-0.15961 0.904727,-4.294928 1.928949,-9.189599 1.024239,-4.894669 2.625995,-12.54549 3.559464,-17.001823 0.933467,-4.456334 1.665007,-8.1346392 1.625634,-8.1740141 -0.07052,-0.070508 -4.221481,0.1582831 -5.388326,0.2969811 -0.54393,0.06465 -0.605804,0.107409 -0.67803,0.468514 -0.04378,0.218551 -0.06459,0.409174 -0.04628,0.423606 0.0183,0.01439 1.158212,-0.05474 2.533301,-0.153707 1.375091,-0.09898 2.52109,-0.159028 2.546671,-0.13344 0.04097,0.04101 -0.501228,2.674716 -3.045866,14.794101 -0.350025,1.667027 -1.364161,6.513329 -2.253643,10.769565 -0.889483,4.256235 -1.64088,7.840178 -1.669777,7.964318 -0.04206,0.180881 0.03425,0.22571 0.384346,0.22571 0.347319,0 0.450566,-0.05949 0.503605,-0.290197 z m 6.137063,2.378159 c 0.05832,-0.261663 0.690992,-3.287071 1.406019,-6.723131 0.715009,-3.436057 1.326589,-6.273938 1.359045,-6.306401 0.04754,-0.04751 5.900107,-0.516349 6.652205,-0.532891 0.172086,-0.0038 0.09758,0.495545 -0.483575,3.241528 -0.377833,1.785303 -0.672511,3.256968 -0.654821,3.270367 0.01766,0.01344 1.415012,-0.07257 3.105156,-0.191046 2.1431,-0.15022 3.103553,-0.264858 3.173987,-0.378811 0.114661,-0.18552 0.06156,0.05252 1.359305,-6.094812 0.533863,-2.528897 0.97066,-4.698349 0.97066,-4.821001 0,-0.190575 -0.08918,-0.212107 -0.612635,-0.148062 -1.13251,0.138539 -5.579644,0.386816 -5.650967,0.315493 -0.05875,-0.05881 1.315797,-6.815748 1.399558,-6.879592 0.01566,-0.01141 1.449379,-0.121105 3.187351,-0.243585 1.737963,-0.122482 3.182243,-0.244452 3.209493,-0.271048 0.0273,-0.0266 0.41986,-1.86397 0.87243,-4.083055 0.45258,-2.219084 0.84922,-4.107249 0.88146,-4.195921 0.0769,-0.211513 -0.6279,-0.205326 -3.673602,0.03225 -1.312351,0.102357 -2.450619,0.187772 -2.529493,0.189791 -0.08274,0.0022 -0.349712,1.05466 -0.630774,2.486479 -0.268079,1.365542 -0.522759,2.521978 -0.56598,2.569857 -0.06664,0.07384 -6.721208,0.613739 -6.819664,0.553306 -0.02833,-0.01742 1.505084,-7.649304 2.242362,-11.1599627 L 91.5204,6.2491358 95.601997,5.967161 c 2.244869,-0.1550828 6.734983,-0.4678035 9.977983,-0.6949269 3.24303,-0.2271234 5.92882,-0.3805426 5.96842,-0.3409321 0.0396,0.039608 -0.94864,4.9700697 -2.19611,10.956576 -1.24747,5.986505 -2.31965,11.145733 -2.38263,11.464952 -0.063,0.319217 -0.35194,1.712167 -0.64215,3.095446 -0.70532,3.361693 -1.81266,8.693033 -2.54494,12.252796 -0.32834,1.596088 -0.6014,2.910605 -0.60679,2.921149 -0.005,0.01048 -4.275716,0.313911 -9.489609,0.674148 -5.21389,0.360237 -9.74852,0.681778 -10.076949,0.714535 l -0.597159,0.05955 z m 11.148669,-3.315187 c 3.537099,-0.249351 6.464072,-0.48571 6.504392,-0.52524 0.0789,-0.07742 7.33042,-34.6060612 7.2786,-34.6578707 -0.0241,-0.02405 -11.063519,0.7570168 -13.644259,0.9653501 l -0.506019,0.040848 -0.614777,2.8374916 c -0.338143,1.560618 -0.618281,2.908589 -0.622536,2.995486 -0.0094,0.183745 0.778914,0.0734 0.91122,-0.127594 0.04445,-0.06738 0.30345,-1.190023 0.575793,-2.494768 0.382115,-1.830641 0.540386,-2.3724615 0.693234,-2.3731309 0.108993,-4.784e-4 2.606713,-0.1745542 5.550604,-0.3868373 2.94389,-0.2122807 5.62933,-0.3860085 5.96764,-0.3860609 0.57305,-8.73e-5 0.61021,0.019731 0.54373,0.2901038 -0.0392,0.1596087 -0.73484,3.4175333 -1.5458,7.2398323 -0.81095,3.822302 -1.49094,6.963221 -1.51107,6.979827 -0.0202,0.01661 -1.45683,0.128064 -3.19266,0.247671 -1.735813,0.119621 -3.17169,0.233142 -3.190828,0.252282 -0.0191,0.01914 -0.07161,0.219195 -0.116807,0.444569 -0.08121,0.405683 -0.07677,0.40977 0.433411,0.40977 0.283451,0 1.721547,-0.08784 3.195794,-0.195225 1.47421,-0.107375 2.69061,-0.179925 2.70304,-0.161222 0.0126,0.0187 -0.79477,3.922656 -1.79385,8.67545 l -1.81653,8.641448 -6.108263,0.425849 c -3.359554,0.234216 -6.126513,0.407604 -6.148819,0.385301 -0.02236,-0.02229 0.243616,-1.40374 0.590921,-3.069871 0.347314,-1.66613 0.633399,-3.101878 0.635763,-3.190549 0.0037,-0.09909 -0.169679,-0.161221 -0.447109,-0.161221 -0.24828,0 -0.451428,0.02168 -0.451428,0.04815 0,0.02647 -0.319221,1.598288 -0.709367,3.492906 -0.390163,1.894617 -0.709384,3.52708 -0.709384,3.627693 0,0.255024 0.186354,0.248344 7.5453,-0.270432 z"
     style="fill:#37c871;stroke-width:1.56366;fill-opacity:1"
     id="path1-2" /><path
     d="m 0.0108706,56.266522 c 0.03105301,-0.08095 0.08781753,-0.35606 0.126077,-0.611378 0.048526,-0.323297 0.11699648,-0.464216 0.22565483,-0.464216 0.0858258,0 2.75518877,-0.179842 5.93192017,-0.39965 14.0035364,-0.96894 20.9856004,-1.450959 29.0977404,-2.008813 8.560315,-0.588673 20.179678,-1.389992 38.518674,-2.656408 5.158391,-0.356218 11.741089,-0.810635 14.628222,-1.009818 2.887132,-0.199183 14.081861,-0.924729 14.109761,-0.896829 0.0279,0.02789 -9.1e-4,0.302573 -0.0655,0.610383 -0.11031,0.531145 -0.13172,0.559655 -0.42116,0.559655 -0.16775,0 -11.3779,0.742887 -14.144053,0.93536 -2.766149,0.192472 -9.972081,0.689828 -16.013202,1.105233 -12.217799,0.840134 -17.124074,1.177632 -39.321139,2.704868 -8.413416,0.578871 -18.930832,1.300006 -23.372,1.60252 -4.4411859,0.302513 -8.36347899,0.578426 -8.71620665,0.613141 -0.5391996,0.05307 -0.63232239,0.03968 -0.58484661,-0.08404 z"
     style="fill:#005522;stroke-width:1.2161;fill-opacity:1"
     id="path1-3"
     sodipodi:nodetypes="scsssssccssssssss" /><path
     d="M 10.230957,7.7438619 C 10.267351,7.5162723 10.336755,7.2559531 10.385262,7.1653743 10.462759,7.0206591 13.713555,6.7775676 37.189661,5.1609964 51.883619,4.1491674 64.786143,3.2583916 65.861962,3.1814924 66.93777,3.1046023 72.422172,2.7250323 78.049514,2.3380213 92.39673,1.3513145 101.81125,0.70475992 107.3313,0.32179041 110.03304,0.13434707 112.25205,-0.01020421 112.26242,5.6476629e-4 112.28326,0.0221751 112.08142,1.1073046 112.04856,1.150586 c -0.011,0.014875 -2.29541,0.1832851 -5.07581,0.3742475 C 94.777281,2.362437 63.311042,4.5251006 50.564826,5.4025398 42.951381,5.9266447 31.802011,6.6926525 25.788483,7.1047793 19.774957,7.5169061 13.917618,7.9224013 12.772161,8.0058814 9.9008622,8.2151378 10.15146,8.240978 10.230957,7.7438619 Z"
     style="fill:#005522;stroke-width:1.2161;fill-opacity:1"
     id="path1-25"
     sodipodi:nodetypes="ssssssccsssss" /></svg>
