<?xml version="1.0" encoding="UTF-8" standalone="no"?>
<svg
   width="113.67mm"
   height="56.38mm"
   version="1.1"
   viewBox="0 0 113.67 56.38"
   id="svg19"
   sodipodi:docname="mirrortool_logo.svg"
   xml:space="preserve"
   inkscape:version="1.3.2 (091e20e, 2023-11-25, custom)"
   xmlns:inkscape="http://www.inkscape.org/namespaces/inkscape"
   xmlns:sodipodi="http://sodipodi.sourceforge.net/DTD/sodipodi-0.dtd"
   xmlns="http://www.w3.org/2000/svg"
   xmlns:svg="http://www.w3.org/2000/svg"><defs
     id="defs19" /><sodipodi:namedview
     id="namedview19"
     pagecolor="#ffffff"
     bordercolor="#000000"
     borderopacity="0.25"
     inkscape:showpageshadow="2"
     inkscape:pageopacity="0.0"
     inkscape:pagecheckerboard="0"
     inkscape:deskcolor="#d1d1d1"
     inkscape:document-units="mm"
     showguides="true"
     inkscape:zoom="0.90774597"
     inkscape:cx="332.6922"
     inkscape:cy="-120.62846"
     inkscape:window-width="1920"
     inkscape:window-height="1009"
     inkscape:window-x="-8"
     inkscape:window-y="-8"
     inkscape:window-maximized="1"
     inkscape:current-layer="svg19"><sodipodi:guide
       position="2.8875799,3.696365"
       orientation="-0.072127768,0.9973954"
       id="guide1"
       inkscape:locked="false" /><sodipodi:guide
       position="89.543211,51.573444"
       orientation="-0.06811478,0.99767749"
       id="guide7"
       inkscape:locked="false" /><sodipodi:guide
       position="84.204073,17.720216"
       orientation="0.98076655,-0.19518445"
       id="guide8"
       inkscape:locked="false" /></sodipodi:namedview><path
     style="fill:#000000;fill-opacity:1;stroke-width:1.2161"
     d="m 2.2782579,-36.573399 c -0.00453,-0.30842 0.8496029,-4.142799 0.945315,-4.241864 0.060476,-0.0625 0.61207,-0.143565 1.2259688,-0.180153 l 1.1161972,-0.06653 -0.2054389,0.957161 c -0.1129768,0.52644 -0.1806869,0.981917 -0.1504305,1.012175 0.030238,0.03026 0.4519889,0.01914 0.9371762,-0.02469 l 0.8821406,-0.0797 0.3401707,-1.590226 c 0.1870785,-0.874624 0.3260113,-1.601969 0.3087103,-1.616321 -0.017291,-0.01435 -0.9478318,0.04063 -2.0678945,0.122175 -1.1200631,0.08155 -2.0634134,0.121331 -2.0963494,0.08838 -0.053867,-0.05389 1.3531775,-7.078271 1.4374461,-7.17601 0.042098,-0.04885 6.5808925,-0.520738 6.6236235,-0.478006 0.0163,0.01635 -0.161384,0.929681 -0.394934,2.029653 l -0.424657,1.999947 -1.1398171,0.08014 c -0.6269085,0.04408 -1.1578877,0.06209 -1.1799417,0.04003 -0.022,-0.02206 0.029152,-0.369547 0.1138278,-0.772184 0.084649,-0.402637 0.1331568,-0.752903 0.107744,-0.778365 -0.02544,-0.02547 -0.4492274,-0.01441 -0.9417116,0.02458 l -0.8954219,0.07088 -0.2536207,1.169009 c -0.1394941,0.642956 -0.2357222,1.187707 -0.2138492,1.21056 0.02191,0.02285 0.9663729,-0.01739 2.098875,-0.08942 1.1325111,-0.07204 2.0738784,-0.113303 2.0919314,-0.0917 0.04137,0.04941 -1.6134345,7.917589 -1.6788812,7.983037 -0.026527,0.02646 -1.2592219,0.131872 -2.7394451,0.234242 -1.4802325,0.10237 -2.9508773,0.207041 -3.2681159,0.232602 -0.3955319,0.03188 -0.5773504,0.01009 -0.5786179,-0.06939 z M 14.016257,-37.37554 c 0,-0.04914 0.473961,-2.346475 1.053248,-5.105194 0.579289,-2.758719 1.05325,-5.083948 1.05325,-5.167177 0,-0.130134 -0.155854,-0.141222 -1.113047,-0.07918 -1.052307,0.0682 -1.109896,0.06207 -1.055313,-0.112477 0.03178,-0.101543 0.149607,-0.632911 0.261887,-1.180822 0.112243,-0.547911 0.217216,-1.009266 0.233187,-1.025233 0.03296,-0.03301 6.826961,-0.520643 6.861943,-0.492523 0.06862,0.05515 -0.477474,2.303565 -0.573973,2.363205 -0.06338,0.03915 -0.569312,0.09883 -1.12439,0.132654 -0.555089,0.03383 -1.021091,0.07429 -1.035577,0.08994 -0.01449,0.01565 -0.510084,2.353123 -1.101331,5.194376 -0.591248,2.841254 -1.103786,5.197498 -1.138967,5.236098 -0.09911,0.108792 -2.320917,0.24888 -2.320917,0.146335 z m 7.459601,-0.628498 c 0.04608,-0.147451 2.035582,-9.55569 2.59087,-12.252036 0.07687,-0.373524 0.155456,-0.526311 0.270143,-0.525553 0.08891,5.87e-4 1.551057,-0.09587 3.249194,-0.214341 1.698119,-0.118472 3.113213,-0.189685 3.144655,-0.158246 0.03142,0.03144 -0.545981,2.9378 -1.283168,6.458578 l -1.340322,6.401416 -1.130139,0.08905 c -0.621576,0.04899 -1.152111,0.06709 -1.178964,0.04025 -0.02689,-0.02685 0.21586,-1.302252 0.539345,-2.834227 l 0.58816,-2.785409 -0.912605,0.071 c -0.501946,0.03906 -0.932007,0.09006 -0.95569,0.11334 -0.02372,0.02328 -0.306882,1.291667 -0.629316,2.818644 -0.322427,1.526977 -0.596454,2.786403 -0.60893,2.798727 -0.01249,0.01232 -0.558175,0.05531 -1.212642,0.09553 -1.138667,0.06998 -1.187374,0.06495 -1.130591,-0.116746 z m 5.897706,-8.251805 c 0.07578,-0.07198 0.485352,-1.923366 0.485352,-2.193473 0,-0.160764 -0.08193,-0.172404 -0.853588,-0.121172 -0.469461,0.03117 -0.891972,0.09914 -0.938914,0.15102 -0.04698,0.05189 -0.162625,0.500593 -0.257097,0.997121 -0.09449,0.496531 -0.194756,0.999581 -0.222857,1.11789 -0.04997,0.210401 -0.03178,0.213976 0.834837,0.16341 0.487252,-0.02842 0.915765,-0.0801 0.952267,-0.114799 z m 6.139098,7.44408 c 0.0307,-0.101544 0.39392,-1.809627 0.807278,-3.795746 0.413367,-1.986118 0.890207,-4.260835 1.05965,-5.054924 0.169433,-0.794092 0.295736,-1.455249 0.280672,-1.469242 -0.01512,-0.01399 -0.501357,0.009 -1.080644,0.05112 -0.579288,0.04211 -1.070921,0.06118 -1.092505,0.04237 -0.02164,-0.01881 0.06736,-0.554272 0.197761,-1.189912 0.234854,-1.145075 0.239833,-1.15613 0.540812,-1.20166 0.553078,-0.08367 6.499166,-0.463393 6.544614,-0.417952 0.05939,0.05934 -0.371304,2.197551 -0.461911,2.293505 -0.03893,0.04121 -0.554754,0.104547 -1.1463,0.140748 -0.981364,0.06004 -1.080019,0.08422 -1.126572,0.27614 -0.02807,0.115687 -0.522785,2.464102 -1.099384,5.218709 -0.576617,2.754608 -1.083153,5.040308 -1.125667,5.079334 -0.04255,0.03903 -0.589446,0.102723 -1.215422,0.141541 -1.075837,0.06672 -1.135064,0.06048 -1.082382,-0.114032 z m 7.486725,-0.459966 c -10e-6,-0.106908 2.621361,-12.723773 2.656725,-12.787009 0.02031,-0.03634 2.30567,-0.206984 2.341862,-0.174863 0.01836,0.01625 -0.568513,2.904074 -1.304022,6.417395 -0.954514,4.559398 -1.380367,6.409858 -1.487759,6.464724 -0.08269,0.04229 -0.613133,0.10585 -1.178629,0.141257 -0.792057,0.0496 -1.028177,0.03547 -1.028177,-0.0615 z m 5.517009,-0.413594 c 0,-0.251754 2.624252,-12.651105 2.691902,-12.718978 0.09218,-0.09243 6.427486,-0.527057 6.508077,-0.446466 0.07308,0.07308 -2.551067,12.71457 -2.66026,12.815472 -0.06068,0.05612 -5.70842,0.493419 -6.314024,0.488898 -0.124139,-9.06e-4 -0.225695,-0.06345 -0.225695,-0.138926 z m 4.387714,-2.529198 c 0.228687,-0.03565 0.341431,-0.116367 0.379932,-0.271995 0.118692,-0.480066 1.638763,-7.840836 1.62096,-7.849587 -0.07102,-0.0349 -1.780791,0.128219 -1.826845,0.174282 -0.03174,0.03174 -0.41571,1.767019 -0.853237,3.856169 -0.437539,2.089148 -0.81774,3.891518 -0.844872,4.005267 -0.04646,0.194682 -0.01277,0.204754 0.574752,0.171686 0.343267,-0.01932 0.770446,-0.05793 0.94931,-0.08582 z m 5.34449,1.982105 c 0.0073,-0.240252 2.679681,-12.76408 2.734844,-12.819245 0.09656,-0.09658 1.91343,-0.239308 1.991686,-0.156462 0.03539,0.03749 0.27541,1.219212 0.53332,2.626045 0.257921,1.406834 0.495559,2.64816 0.528101,2.758499 0.03344,0.113499 0.317912,-1.040925 0.654978,-2.658189 0.327713,-1.572345 0.639862,-2.886044 0.693674,-2.919334 0.09911,-0.06132 2.208821,-0.204765 2.259921,-0.153666 0.0152,0.01525 -0.491948,2.507194 -1.127127,5.537649 -1.492613,7.121419 -1.525326,7.273167 -1.579065,7.326906 -0.101058,0.101045 -2.078346,0.166678 -2.078346,0.06898 0,-0.144023 -0.993564,-5.370534 -1.027359,-5.404339 -0.01557,-0.0155 -0.294526,1.252223 -0.620039,2.817168 l -0.59185,2.845355 -0.610699,0.05258 c -1.522968,0.131136 -1.764131,0.141818 -1.762039,0.07805 z"
     id="path19"
     sodipodi:nodetypes="scscsssccsssscscsccsscscsccsssssssssccssssscssscsssscscscscsssssssscssssssssccccscsssscssssscscsssscsccsscssssssssscscssccsscscsss" /><path
     id="path1-32"
     style="fill:#000000;fill-opacity:1;stroke-width:2.23398"
     d="m 58.247446,25.372386 c -1.156447,0.0023 -3.485974,0.184265 -3.622521,0.334153 -0.06463,0.07091 -1.00613,4.399849 -2.092255,9.619239 -1.08612,5.219387 -2.050839,9.568913 -2.022953,9.541395 0,0 -0.852041,4.491588 -0.885694,4.493976 -0.0066,4.73e-4 11.305778,-1.163422 11.343161,-1.20086 0.02934,-0.02933 0.222893,-0.876893 0.429084,-1.883408 0.206258,-1.006513 0.421965,-1.982611 0.480346,-2.169147 0.100267,-0.320643 -0.0053,-0.33223 -1.938468,-0.206947 -1.758365,0.113972 -4.919263,0.646306 -4.919263,0.40725 0,-0.152893 0.870513,-4.42426 1.934669,-9.492033 1.064152,-5.067773 1.934671,-9.287845 1.934671,-9.378115 0,-0.04709 -0.255296,-0.06625 -0.640777,-0.0655 z m -8.509509,0.82684 c -1.393775,-0.03347 -11.578247,0.674195 -11.736173,0.832533 -0.123615,0.124023 -4.918312,22.781643 -4.918312,23.241667 0,0.137928 0.185158,0.251838 0.411995,0.253462 1.106608,0.0083 11.426886,-0.790748 11.537768,-0.893288 0.199526,-0.184379 4.994906,-23.283738 4.861355,-23.417288 -0.0092,-0.0092 -0.06371,-0.01485 -0.156633,-0.01709 z m -15.685253,1.13441 c -1.393776,-0.03347 -11.578248,0.674197 -11.736173,0.832535 -0.123616,0.124023 -4.919263,22.781644 -4.919263,23.241666 0,0.137926 0.186108,0.251838 0.412945,0.253462 1.10661,0.0083 11.42594,-0.790747 11.53682,-0.893289 0.199525,-0.184379 4.994907,-23.283736 4.861357,-23.417287 -0.0092,-0.0092 -0.06277,-0.01485 -0.155686,-0.01709 z m -15.731768,1.080301 c -0.06426,-0.05166 -12.5451837,0.844042 -12.6057314,0.904681 -0.029339,0.02933 -0.2219427,0.876894 -0.4281334,1.88341 -0.2062586,1.006512 -0.4229141,1.98261 -0.4812941,2.169144 -0.1002685,0.320643 0.00538,0.332232 1.9384669,0.206947 1.7583656,-0.11397 2.0447881,-0.09381 2.0447881,0.145243 0,0.152892 -0.8705145,4.42426 -1.9346697,9.492031 -1.0641514,5.067774 -1.9346696,9.287848 -1.9346696,9.378118 0,0.188375 4.0812327,-0.0688 4.263298,-0.268652 0.064628,-0.07091 1.0061302,-4.399847 2.0922542,-9.619237 1.086121,-5.219389 1.996336,-9.512647 2.022953,-9.541396 0.02661,-0.02875 0.882694,-0.103036 1.902394,-0.165177 1.01968,-0.06213 1.949245,-0.172052 2.065673,-0.243972 0.177269,-0.109558 1.180726,-4.239829 1.054671,-4.34114 z m 26.258535,2.389385 c 0.09801,-0.0022 0.161296,-3.79e-4 0.177519,0.0076 0.03253,0.01599 -2.744927,13.466674 -2.961811,14.343895 -0.07035,0.284374 -0.27606,0.431341 -0.693937,0.496482 -0.326835,0.05097 -1.108072,0.122276 -1.735317,0.157583 -1.073566,0.06042 -1.134811,0.04153 -1.049923,-0.314217 0.04957,-0.207852 0.74405,-3.50162 1.543559,-7.319089 0.799484,-3.817471 1.501686,-6.987676 1.559696,-7.045689 0.07363,-0.07365 2.474123,-0.311084 3.160214,-0.326559 z m -15.685253,1.13441 c 0.09801,-0.0022 0.161296,-3.78e-4 0.177519,0.0076 0.03253,0.01598 -2.745876,13.466677 -2.96276,14.343896 -0.07035,0.284373 -0.27606,0.431343 -0.693937,0.496483 -0.326835,0.05098 -1.107123,0.121327 -1.734369,0.156634 -1.073564,0.06042 -1.13576,0.04247 -1.050872,-0.313269 0.04958,-0.20785 0.744999,-3.501618 1.544509,-7.319087 0.799484,-3.817471 1.500735,-6.98768 1.558748,-7.045692 0.07363,-0.07365 2.47507,-0.311084 3.161162,-0.326559 z" /><path
     id="path1-7"
     style="fill:#000000;fill-opacity:1;stroke-width:1.38554"
     d="m 66.455776,6.3774005 c -0.355572,-0.00658 -1.787457,0.069732 -3.463949,0.1866911 -1.916009,0.1336709 -3.565798,0.242489 -3.666115,0.2418278 -0.129402,-8.546e-4 -0.218294,0.1715162 -0.305026,0.5929636 -0.626533,3.042289 -2.871226,13.657502 -2.92322,13.82387 -0.06407,0.205009 -0.0089,0.210836 1.275885,0.131877 0.738436,-0.04538 1.354009,-0.09411 1.368103,-0.108016 0.01407,-0.01391 0.32332,-1.434742 0.687115,-3.157632 0.363803,-1.72289 0.683246,-3.153935 0.710008,-3.180204 0.03287,0.0099 0.823198,6.119907 0.835758,6.132443 0.0303,0.03028 0.629053,0.0098 1.330379,-0.04546 l 1.274918,-0.100278 -1.228488,-5.977027 2.374431,-0.182823 c 0.831769,-3.972496 1.8498,-8.3146939 1.81436,-8.3501678 -0.0044,-0.00439 -0.03337,-0.0071 -0.08416,-0.00804 z m -9.853372,0.8147996 c -0.856393,-0.02057 -7.11397,0.4144189 -7.210997,0.5117081 -0.07596,0.076209 -3.02253,13.9974628 -3.02253,14.2801198 0,0.08474 0.114059,0.155062 0.253435,0.156061 0.679945,0.0051 7.020985,-0.485782 7.089115,-0.54879 0.122597,-0.113288 3.068791,-14.3067301 2.986741,-14.3887807 -0.0056,-0.00564 -0.03867,-0.00898 -0.09577,-0.010342 z m -9.286851,0.5781304 c -0.35557,-0.00658 -1.78778,0.069732 -3.46427,0.1866921 -1.91601,0.1336709 -3.565476,0.2424893 -3.665794,0.241828 -0.129401,-8.556e-4 -0.218293,0.1715151 -0.305026,0.5929626 -0.626532,3.0422898 -2.871226,13.6575018 -2.92322,13.8238708 -0.06407,0.205008 -0.0092,0.210836 1.275563,0.131877 0.738436,-0.04538 1.35433,-0.09379 1.368426,-0.107694 0.01407,-0.0139 0.323319,-1.435064 0.687114,-3.157954 0.363802,-1.722891 0.683247,-3.153935 0.710008,-3.180204 0.03287,0.0099 0.823199,6.119907 0.835759,6.132442 0.03029,0.03028 0.62873,0.01013 1.330055,-0.04514 l 1.275241,-0.100602 -1.228488,-5.976704 2.374431,-0.183145 c 0.83177,-3.972496 1.849811,-8.314695 1.814357,-8.3501678 -0.0044,-0.00439 -0.03336,-0.0071 -0.08416,-0.00804 z m -9.478055,0.6974331 c -0.355571,-0.00658 -1.787457,0.069732 -3.463949,0.186691 -1.91601,0.133672 -3.565797,0.2424901 -3.666115,0.2418289 -0.129401,-8.556e-4 -0.217972,0.1715151 -0.304704,0.5929626 -0.626532,3.0422899 -2.871226,13.6575009 -2.92322,13.8238699 -0.06407,0.205009 -0.0092,0.210837 1.275563,0.131878 0.738436,-0.04538 1.354009,-0.09412 1.368103,-0.108017 0.01407,-0.01391 0.32332,-1.434741 0.687115,-3.157632 0.363803,-1.72289 0.683246,-3.154256 0.710008,-3.180526 0.03286,0.0099 0.823521,6.12023 0.836081,6.132765 0.0303,0.03028 0.62873,0.0098 1.330055,-0.04546 l 1.275241,-0.100278 -1.228487,-5.977028 2.374431,-0.182822 c 0.831769,-3.972498 1.849488,-8.3146949 1.814035,-8.3501688 -0.0044,-0.00439 -0.03336,-0.0071 -0.08416,-0.00804 z m -9.418405,0.5210589 c -0.526336,0.013267 -2.522575,0.1665864 -2.542743,0.2028135 -0.04029,0.072051 -3.026723,14.446899 -3.026723,14.568701 0,0.110478 0.269003,0.12648 1.171417,0.06997 0.644282,-0.04034 1.248786,-0.112726 1.342953,-0.160896 0.122355,-0.06251 0.607554,-2.170796 1.695055,-7.365443 0.837983,-4.002823 1.506428,-7.2930809 1.48547,-7.3115967 -0.0051,-0.0046 -0.05024,-0.00543 -0.125429,-0.00355 z M 63.023749,9.270633 c 0.239647,0.00564 0.275685,0.05333 0.275685,0.1667013 0,0.3047608 -0.461997,2.3938157 -0.5475,2.4750307 -0.04118,0.03915 -0.524595,0.09755 -1.074363,0.129621 -0.977804,0.05705 -0.998542,0.05296 -0.942161,-0.184435 0.0317,-0.133488 0.48869,-2.3278156 0.541694,-2.386361 0.05297,-0.058533 0.529515,-0.135404 1.059209,-0.1705697 0.326498,-0.021677 0.543649,-0.033388 0.687436,-0.029993 z M 22.980538,9.3670457 C 22.483322,9.3461836 20.54146,9.6128683 20.44521,9.7091525 20.40009,9.7542718 16.192004,17.46956 13.790742,21.775737 L 12.318169,10.198609 c -0.01982,-0.12832 -4.6590923,0.306951 -4.8146399,0.310508 -0.3403449,0.0078 1.854496,1.222395 1.7647015,1.634436 -0.6272233,2.878073 -2.7197618,13.121905 -2.7197618,12.882352 0,-0.07269 0.2726588,0.0604 2.0078194,-0.089 l 0.695498,-0.05997 c 0,0 1.3632118,-6.468996 1.3809998,-6.451333 0.03851,0.03852 1.515375,6.217139 1.50385,6.217889 l 2.007497,-0.089 4.547015,-6.448753 c 0,0 -1.289188,6.225845 -1.300712,6.226593 l 2.596268,-0.226028 3.108943,-14.7112192 c -0.0025,-0.016036 -0.04407,-0.025072 -0.115109,-0.028049 z M 53.43284,10.020949 c 0.06023,-0.0014 0.09901,-6.1e-5 0.108984,0.0048 0.01998,0.0098 -1.686576,8.274193 -1.819838,8.81319 -0.04323,0.17473 -0.169825,0.265321 -0.426585,0.305348 -0.20082,0.03131 -0.680575,0.07471 -1.065979,0.09641 -0.659643,0.03713 -0.697361,0.02576 -0.645197,-0.192817 0.03046,-0.127713 0.457363,-2.151117 0.948611,-4.496715 0.491236,-2.345602 0.922323,-4.294054 0.957963,-4.329694 0.04524,-0.04526 1.520483,-0.191044 1.942041,-0.200556 z m -9.549313,0.642618 c 0.239646,0.0056 0.275684,0.05333 0.275684,0.1667 0,0.304762 -0.461996,2.393817 -0.547499,2.475032 -0.04118,0.03915 -0.524596,0.09755 -1.074363,0.129621 -0.977805,0.05705 -0.998543,0.05297 -0.942163,-0.184436 0.03171,-0.133487 0.488691,-2.327814 0.541696,-2.38636 0.05296,-0.05853 0.529514,-0.135404 1.059207,-0.170571 0.3265,-0.02168 0.543649,-0.03339 0.687438,-0.02998 z M 34.405794,11.361 c 0.239647,0.0056 0.275684,0.05333 0.275684,0.1667 0,0.304762 -0.46232,2.393817 -0.547822,2.475032 -0.04118,0.03915 -0.524595,0.09724 -1.074362,0.129298 -0.977806,0.05705 -0.998221,0.05329 -0.94184,-0.184112 0.0317,-0.133488 0.488368,-2.328138 0.541372,-2.386684 0.05297,-0.05853 0.529838,-0.135081 1.059531,-0.170247 0.326498,-0.02168 0.543649,-0.0334 0.687437,-0.02999 z"
     sodipodi:nodetypes="csscsscsccccccsccccsccscccsscsscsccccccscccsscsscsccccccsccccssccccsscsscsssccccccsccccccccccccccssccsccssccscsssssccscsss" /><path
     d="m 99.359505,-30.890104 c 0.316265,-1.525777 1.894565,-9.100454 3.507345,-16.832614 1.61277,-7.73216 2.91657,-14.076772 2.89732,-14.099135 -0.0192,-0.02236 -1.15813,0.04264 -2.53088,0.144418 -1.37272,0.101799 -2.51866,0.165027 -2.54649,0.14051 -0.0522,-0.04601 1.36916,-6.893872 1.44717,-6.971875 0.0937,-0.09365 11.82695,-0.857152 11.90915,-0.774947 0.0927,0.09271 -0.96697,5.276099 -5.43623,26.591114 -0.25286,1.205933 -1.01625,4.862425 -1.69641,8.12554 -0.68017,3.263113 -1.2446,5.941132 -1.25431,5.951153 -0.01,0.01002 -1.5598,0.126608 -3.44467,0.259093 l -3.427027,0.240873 z m 3.954755,-0.807244 c 0.0367,-0.15961 0.90473,-4.294928 1.92895,-9.189599 1.02424,-4.894669 2.62599,-12.54549 3.55946,-17.001823 0.93347,-4.456334 1.66501,-8.134639 1.62564,-8.174014 -0.0705,-0.07051 -4.22148,0.158283 -5.38833,0.296981 -0.54393,0.06465 -0.6058,0.107409 -0.67803,0.468514 -0.0438,0.218551 -0.0646,0.409174 -0.0463,0.423606 0.0183,0.01439 1.15821,-0.05474 2.5333,-0.153707 1.37509,-0.09898 2.52109,-0.159028 2.54667,-0.13344 0.041,0.04101 -0.50122,2.674716 -3.04586,14.794101 -0.35003,1.667027 -1.36416,6.513329 -2.25365,10.769565 -0.88948,4.256235 -1.64088,7.840178 -1.66977,7.964318 -0.0421,0.180881 0.0343,0.22571 0.38434,0.22571 0.34732,0 0.45057,-0.05949 0.50361,-0.290197 z m 6.13706,2.378159 c 0.0583,-0.261663 0.691,-3.287071 1.40602,-6.723131 0.71501,-3.436057 1.32659,-6.273938 1.35905,-6.306401 0.0475,-0.04751 5.9001,-0.516349 6.6522,-0.532891 0.17209,-0.0038 0.0976,0.495545 -0.48357,3.241528 -0.37784,1.785303 -0.67251,3.256968 -0.65482,3.270367 0.0177,0.01344 1.41501,-0.07257 3.10515,-0.191046 2.1431,-0.15022 3.10356,-0.264858 3.17399,-0.378811 0.11466,-0.18552 0.0616,0.05252 1.3593,-6.094812 0.53387,-2.528897 0.97066,-4.698349 0.97066,-4.821001 0,-0.190575 -0.0892,-0.212107 -0.61263,-0.148062 -1.13251,0.138539 -5.57964,0.386816 -5.65097,0.315493 -0.0588,-0.05881 1.3158,-6.815748 1.39956,-6.879592 0.0157,-0.01141 1.44938,-0.121105 3.18735,-0.243585 1.73796,-0.122482 3.18224,-0.244452 3.20949,-0.271048 0.0273,-0.0266 0.41986,-1.86397 0.87243,-4.083055 0.45258,-2.219084 0.84922,-4.107249 0.88146,-4.195921 0.0769,-0.211513 -0.6279,-0.205326 -3.6736,0.03225 -1.31235,0.102357 -2.45062,0.187772 -2.52949,0.189791 -0.0827,0.0022 -0.34971,1.05466 -0.63077,2.486479 -0.26808,1.365542 -0.52276,2.521978 -0.56598,2.569857 -0.0666,0.07384 -6.72121,0.613739 -6.81967,0.553306 -0.0283,-0.01742 1.50509,-7.649304 2.24236,-11.159963 l 0.20483,-0.975321 4.0816,-0.281975 c 2.24487,-0.155083 6.73498,-0.467804 9.97798,-0.694927 3.24303,-0.227124 5.92882,-0.380543 5.96842,-0.340932 0.0396,0.03961 -0.94864,4.970069 -2.19611,10.956576 -1.24747,5.986505 -2.31965,11.145733 -2.38263,11.464952 -0.063,0.319217 -0.35194,1.712167 -0.64215,3.095446 -0.70532,3.361693 -1.81266,8.693033 -2.54494,12.252796 -0.32834,1.596088 -0.6014,2.910605 -0.60679,2.921149 -0.005,0.01048 -4.27571,0.313911 -9.4896,0.674148 -5.21389,0.360237 -9.74852,0.681778 -10.07695,0.714535 l -0.59716,0.05955 z m 11.14867,-3.315187 c 3.5371,-0.249351 6.46407,-0.48571 6.50439,-0.52524 0.0789,-0.07742 7.33042,-34.606061 7.2786,-34.657871 -0.0241,-0.02405 -11.06351,0.757017 -13.64425,0.96535 l -0.50602,0.04085 -0.61478,2.837492 c -0.33814,1.560618 -0.61828,2.908589 -0.62254,2.995486 -0.009,0.183745 0.77892,0.0734 0.91122,-0.127594 0.0444,-0.06738 0.30345,-1.190023 0.5758,-2.494768 0.38211,-1.830641 0.54038,-2.372462 0.69323,-2.373131 0.10899,-4.79e-4 2.60671,-0.174554 5.5506,-0.386837 2.94389,-0.212281 5.62933,-0.386009 5.96764,-0.386061 0.57305,-8.8e-5 0.61021,0.01973 0.54373,0.290103 -0.0392,0.159609 -0.73484,3.417534 -1.5458,7.239833 -0.81095,3.822302 -1.49094,6.963221 -1.51107,6.979827 -0.0202,0.01661 -1.45683,0.128064 -3.19266,0.247671 -1.73581,0.119621 -3.17169,0.233142 -3.19082,0.252282 -0.0191,0.01914 -0.0716,0.219195 -0.11681,0.444569 -0.0812,0.405683 -0.0768,0.40977 0.43341,0.40977 0.28345,0 1.72155,-0.08784 3.19579,-0.195225 1.47421,-0.107375 2.69061,-0.179925 2.70304,-0.161222 0.0126,0.0187 -0.79477,3.922656 -1.79385,8.67545 l -1.81653,8.641448 -6.10826,0.425849 c -3.35955,0.234216 -6.12651,0.407604 -6.14882,0.385301 -0.0224,-0.02229 0.24362,-1.40374 0.59092,-3.069871 0.34732,-1.66613 0.6334,-3.101878 0.63577,-3.190549 0.004,-0.09909 -0.16968,-0.161221 -0.44711,-0.161221 -0.24828,0 -0.45143,0.02168 -0.45143,0.04815 0,0.02647 -0.31922,1.598288 -0.70937,3.492906 -0.39016,1.894617 -0.70938,3.52708 -0.70938,3.627693 0,0.255024 0.18635,0.248344 7.5453,-0.270432 z"
     style="fill:#37c871;fill-opacity:1;stroke-width:1.56366"
     id="path1-2" /><path
     d="m 0.0108706,56.266522 c 0.03105301,-0.08095 0.08781753,-0.35606 0.126077,-0.611378 0.048526,-0.323297 0.11699648,-0.464216 0.22565483,-0.464216 0.0858258,0 2.75518877,-0.179842 5.93192017,-0.39965 14.0035364,-0.96894 20.9856004,-1.450959 29.0977404,-2.008813 8.560315,-0.588673 20.179678,-1.389992 38.518674,-2.656408 5.158391,-0.356218 11.741089,-0.810635 14.628222,-1.009818 2.887132,-0.199183 14.081861,-0.924729 14.109761,-0.896829 0.0279,0.02789 -9.1e-4,0.302573 -0.0655,0.610383 -0.11031,0.531145 -0.13172,0.559655 -0.42116,0.559655 -0.16775,0 -11.3779,0.742887 -14.144053,0.93536 -2.766149,0.192472 -9.972081,0.689828 -16.013202,1.105233 -12.217799,0.840134 -17.124074,1.177632 -39.321139,2.704868 -8.413416,0.578871 -18.930832,1.300006 -23.372,1.60252 -4.4411859,0.302513 -8.36347899,0.578426 -8.71620665,0.613141 -0.5391996,0.05307 -0.63232239,0.03968 -0.58484661,-0.08404 z"
     style="fill:#005522;stroke-width:1.2161;fill-opacity:1"
     id="path1-3"
     sodipodi:nodetypes="scsssssccssssssss" /><path
     d="M 10.230957,7.7438619 C 10.267351,7.5162723 10.336755,7.2559531 10.385262,7.1653743 10.462759,7.0206591 13.713555,6.7775676 37.189661,5.1609964 51.883619,4.1491674 64.786143,3.2583916 65.861962,3.1814924 66.93777,3.1046023 72.422172,2.7250323 78.049514,2.3380213 92.39673,1.3513145 101.81125,0.70475992 107.3313,0.32179041 110.03304,0.13434707 112.25205,-0.01020421 112.26242,5.6476629e-4 112.28326,0.0221751 112.08142,1.1073046 112.04856,1.150586 c -0.011,0.014875 -2.29541,0.1832851 -5.07581,0.3742475 C 94.777281,2.362437 63.311042,4.5251006 50.564826,5.4025398 42.951381,5.9266447 31.802011,6.6926525 25.788483,7.1047793 19.774957,7.5169061 13.917618,7.9224013 12.772161,8.0058814 9.9008622,8.2151378 10.15146,8.240978 10.230957,7.7438619 Z"
     style="fill:#005522;stroke-width:1.2161;fill-opacity:1"
     id="path1-25"
     sodipodi:nodetypes="ssssssccsssss" /><path
     style="fill:#000000"
     d="m 137.1691,16.818385 c -0.41245,-0.07597 -1.10728,-0.518521 -1.54406,-0.983455 -0.52876,-0.562843 -0.80648,-1.315675 -0.83105,-2.2528 -0.0271,-1.034795 0.18781,-1.646674 0.8118,-2.310876 0.46679,-0.496874 1.05916,-0.903408 1.31638,-0.903408 0.36004,0 0.46767,-0.8931365 0.46767,-3.8805555 0,-2.987418 -0.10763,-3.880555 -0.46767,-3.880555 -0.25722,0 -0.83449,-0.390462 -1.28283,-0.867694 -0.58013,-0.617518 -0.81515,-1.28790303 -0.81515,-2.32512603 0,-1.08953097 0.22571,-1.68314497 0.89415,-2.35158597 0.64546,-0.645458 1.29606,-0.904691 2.33917,-0.932043 1.13385,-0.02973 1.65262,0.169718 2.40913,0.926224 0.72433,0.724334 0.96411,1.310117 0.96411,2.35533797 0,0.983241 -0.24845,1.65569003 -0.84722,2.29305503 -0.46598,0.496008 -1.05768,0.901832 -1.3149,0.901832 -0.36004,0 -0.46768,0.893137 -0.46768,3.880555 0,2.987419 0.10764,3.8805555 0.46768,3.8805555 0.25722,0 0.84959,0.406534 1.31638,0.903408 0.62759,0.668047 0.83897,1.274801 0.81133,2.328953 -0.0264,1.006915 -0.28348,1.661603 -0.87541,2.229384 -0.46092,0.442112 -1.23491,0.876531 -1.71998,0.965377 -0.48507,0.08884 -1.2194,0.09938 -1.63185,0.02342 z m 2.39783,-1.742715 c 0.35482,-0.321114 0.64514,-0.983301 0.64514,-1.471528 0,-0.488227 -0.26273,-1.177997 -0.58385,-1.532824 -0.32111,-0.354826 -0.9833,-0.645139 -1.47153,-0.645139 -0.48822,0 -1.17799,0.262729 -1.53282,0.583843 -0.35483,0.321113 -0.64514,0.983301 -0.64514,1.471528 0,0.488226 0.26273,1.177997 0.58384,1.532823 0.32112,0.354827 0.98331,0.645139 1.47153,0.645139 0.48823,0 1.178,-0.262729 1.53283,-0.583842 z m 0,-14.11111153 c 0.35482,-0.321113 0.64514,-0.983301 0.64514,-1.471527 0,-0.488227 -0.26273,-1.17799697 -0.58385,-1.53282397 -0.32111,-0.354826 -0.9833,-0.645139 -1.47153,-0.645139 -0.48822,0 -1.17799,0.262729 -1.53282,0.583843 -0.35483,0.321113 -0.64514,0.983301 -0.64514,1.47152697 0,0.488227 0.26273,1.177998 0.58384,1.532824 0.32112,0.35482703 0.98331,0.64513903 1.47153,0.64513903 0.48823,0 1.178,-0.262729 1.53283,-0.58384303 z M 151.28021,16.818385 c -0.41245,-0.07597 -1.10727,-0.518521 -1.54405,-0.983455 -0.52877,-0.562843 -0.80649,-1.315675 -0.83106,-2.2528 -0.0271,-1.034795 0.18782,-1.646674 0.8118,-2.310876 0.46679,-0.496874 1.05916,-0.903408 1.31638,-0.903408 0.35873,0 0.46768,-0.8641085 0.46768,-3.7093475 0,-3.703095 -0.002,-3.711373 -1.14653,-4.911638 -0.63059,-0.661259 -1.50372,-1.30462603 -1.94028,-1.42970303 -0.71553,-0.205003 -0.79375,-0.105449 -0.79375,1.01026303 0,0.680721 -0.17632,1.346647 -0.39182,1.479834 -0.2197,0.135781 -1.18643,-0.552448 -2.20066,-1.56668 l -1.80884,-1.80883903 1.80884,-1.80883997 c 1.01423,-1.014232 1.98096,-1.702461 2.20066,-1.56668 0.2155,0.133188 0.39182,0.847947 0.39182,1.588353 0,1.222615 0.10019,1.36623197 1.09141,1.56447597 0.60027,0.120054 1.61578,0.74266 2.25669,1.383567 0.64091,0.64090803 1.33951,1.79283803 1.55246,2.55984403 0.21295,0.767007 0.38806,2.704245 0.38914,4.304974 0.001,2.180778 0.11921,2.9104165 0.46964,2.9104165 0.25722,0 0.84959,0.406534 1.31638,0.903408 0.6276,0.668047 0.83897,1.274801 0.81133,2.328953 -0.0264,1.006915 -0.28348,1.661603 -0.87541,2.229384 -0.46091,0.442112 -1.2349,0.876531 -1.71997,0.965377 -0.48507,0.08884 -1.21941,0.09938 -1.63186,0.02342 z m 2.39783,-1.742715 c 0.35483,-0.321114 0.64514,-0.983301 0.64514,-1.471528 0,-0.488227 -0.26273,-1.177997 -0.58384,-1.532824 -0.32112,-0.354826 -0.9833,-0.645139 -1.47153,-0.645139 -0.48823,0 -1.178,0.262729 -1.53283,0.583843 -0.35482,0.321113 -0.64513,0.983301 -0.64513,1.471528 0,0.488226 0.26272,1.177997 0.58384,1.532823 0.32111,0.354827 0.9833,0.645139 1.47153,0.645139 0.48822,0 1.17799,-0.262729 1.53282,-0.583842 z m -7.46875,-15.71953053 c 0,-1.05763297 -0.0395,-1.09442897 -0.58706,-0.54687197 -0.48495,0.48495297 -0.50812,0.68217197 -0.13319,1.13392897 0.24962,0.30078 0.5138,0.546872 0.58705,0.546872 0.0733,0 0.1332,-0.510268 0.1332,-1.133929 z"
     id="path6" /><path
     d="M 110.49991,3.1533534 C 109.07716,3.0936603 103.52069,3.856755 103.24528,4.132264 103.11617,4.2613632 91.075085,26.338019 84.204074,38.659785 L 79.990431,5.5328029 c -0.05671,-0.3671771 -7.300224,0.5210325 -7.300224,0.5210325 0,0 -9.209292,43.1771556 -9.209292,41.9060336 0,-0.207991 0.780191,0.172837 5.745211,-0.254653 l 1.990108,-0.171612 c 0,0 3.900716,-18.510492 3.951616,-18.45995 0.110184,0.110215 4.231555,18.076943 4.231555,18.076943 l 3.099586,-0.22415 3.156511,-0.228266 12.570676,-18.539779 c 0,0 -3.688906,17.814735 -3.72188,17.816876 l 7.429002,-0.646761 8.89599,-42.0949232 c -0.007,-0.045891 -0.12612,-0.071743 -0.32938,-0.080258 z"
     style="fill:#37c871;fill-opacity:1;stroke-width:3.9646"
     id="path1"
     sodipodi:nodetypes="scccccccccccccccss" /><path
     d="m 110.49991,3.1533534 c -1.42275,-0.059693 -6.97922,0.7034016 -7.25463,0.9789106 -0.12911,0.1290992 -12.170195,22.205755 -19.041206,34.527521 0,0 -1.644292,8.262266 -1.705083,8.266662 l 3.156511,-0.228266 12.570676,-18.539779 c 0,0 -3.688906,17.814735 -3.72188,17.816876 l 7.429002,-0.646761 8.89599,-42.0949232 c -0.007,-0.045891 -0.12612,-0.071743 -0.32938,-0.080258 z"
     style="fill:#005522;fill-opacity:0.57254905;stroke-width:3.9646"
     id="path9"
     sodipodi:nodetypes="sccccccccss" /></svg>
